<svg width="21" height="20" viewBox="0 0 21 20" fill="none" xmlns="http://www.w3.org/2000/svg">
<path d="M9.4459 1.03508C5.03757 1.51425 1.49174 5.06008 1.01257 9.37258C0.533403 13.8767 3.1209 17.9017 7.05007 19.4351C7.33757 19.5309 7.62507 19.3392 7.62507 18.9559V17.4226C7.62507 17.4226 7.24174 17.5184 6.76257 17.5184C5.4209 17.5184 4.8459 16.3684 4.75007 15.6976C4.65424 15.3142 4.46257 15.0267 4.17507 14.7392C3.88757 14.6434 3.79174 14.6434 3.79174 14.5476C3.79174 14.3559 4.07924 14.3559 4.17507 14.3559C4.75007 14.3559 5.22924 15.0267 5.4209 15.3142C5.90007 16.0809 6.47507 16.2726 6.76257 16.2726C7.1459 16.2726 7.4334 16.1767 7.62507 16.0809C7.7209 15.4101 8.0084 14.7392 8.5834 14.3559C6.37924 13.8767 4.75007 12.6309 4.75007 10.5226C4.75007 9.46842 5.22924 8.41425 5.90007 7.64758C5.80424 7.45591 5.7084 6.97675 5.7084 6.30591C5.7084 5.92258 5.7084 5.34758 5.9959 4.77258C5.9959 4.77258 7.33757 4.77258 8.67924 6.01841C9.1584 5.82675 9.82924 5.73092 10.5001 5.73092C11.1709 5.73092 11.8417 5.82675 12.4167 6.01841C13.6626 4.77258 15.1001 4.77258 15.1001 4.77258C15.2917 5.34758 15.2917 5.92258 15.2917 6.30591C15.2917 7.07258 15.1959 7.45591 15.1001 7.64758C15.7709 8.41425 16.2501 9.37258 16.2501 10.5226C16.2501 12.6309 14.6209 13.8767 12.4167 14.3559C12.9917 14.8351 13.3751 15.6976 13.3751 16.5601V19.0517C13.3751 19.3392 13.6626 19.6267 14.0459 19.5309C17.5917 18.0934 20.0834 14.6434 20.0834 10.6184C20.0834 4.86842 15.1959 0.364248 9.4459 1.03508Z" fill="#0F0A0A"/>
</svg>
